<svg width="11" height="11" viewBox="0 0 11 11" fill="none" xmlns="http://www.w3.org/2000/svg">
<path d="M5.66399 10.0128C6.05451 10.4033 6.68768 10.4033 7.0782 10.0128C7.46872 9.62225 7.46872 8.98908 7.0782 8.59856L5.66399 10.0128ZM7.0782 2.2346C7.46872 1.84407 7.46872 1.21091 7.0782 0.820383C6.68768 0.429859 6.05451 0.429859 5.66399 0.820383L7.0782 2.2346ZM3.07126 7.42005L5.66399 10.0128L7.0782 8.59856L4.48548 6.00583L3.07126 7.42005ZM4.48548 4.82732L7.0782 2.2346L5.66399 0.820383L3.07126 3.41311L4.48548 4.82732ZM4.48548 6.00583C4.16004 5.6804 4.16004 5.15276 4.48548 4.82732L3.07126 3.41311C1.96478 4.51959 1.96478 6.31356 3.07126 7.42005L4.48548 6.00583Z" fill="white" fill-opacity="0.6"/>
</svg>
