<svg width="54" height="54" viewBox="0 0 54 54" fill="none" xmlns="http://www.w3.org/2000/svg">
<g filter="url(#filter0_b)">
<path d="M0 27C0 12.0884 12.0884 0 27 0C41.9117 0 54 12.0884 54 27C54 41.9117 41.9117 54 27 54C12.0884 54 0 41.9117 0 27Z" fill="white" fill-opacity="0.3"/>
</g>
<path fill-rule="evenodd" clip-rule="evenodd" d="M26.6288 22.5505C26.6288 21.5098 26.3562 20.6178 25.8126 19.871C24.9067 18.6549 23.3709 18.0317 21.2 18H12.5996V35.5573H20.6192C21.5234 35.5573 22.36 35.4805 23.1338 35.3217C23.9077 35.1614 24.5765 34.869 25.1438 34.4397C25.6484 34.0656 26.0683 33.6044 26.4036 33.0582C26.9336 32.2329 27.1978 31.2991 27.1978 30.2583C27.1978 29.2493 26.9657 28.3907 26.5052 27.6858C26.0395 26.9791 25.3554 26.4629 24.4478 26.1356C25.0456 25.8348 25.4977 25.5007 25.8059 25.1366C26.3562 24.4851 26.6288 23.6214 26.6288 22.5505ZM38.6294 21.0036H31.0027V18.8186H38.6294V21.0036ZM31.8917 27.781C32.017 26.9357 32.3234 26.2658 32.8094 25.7713C33.2954 25.2768 33.9829 25.0296 34.8635 25.0296C35.6763 25.0296 36.3553 25.2618 36.9073 25.7279C37.4525 26.1973 37.7608 26.8788 37.8233 27.781H31.8917ZM37.9572 22.8378C38.8767 23.2422 39.6336 23.8836 40.2296 24.759C40.7732 25.5308 41.122 26.4261 41.2811 27.4435C41.3743 28.0383 41.4115 28.9002 41.3963 30.0212H31.807C31.8646 31.3225 32.3184 32.2363 33.1854 32.7592C33.7103 33.0849 34.3419 33.2486 35.0836 33.2486C35.8643 33.2486 36.5026 33.0498 36.992 32.6539C37.2612 32.4385 37.4983 32.141 37.7015 31.7602H41.2151C41.122 32.5286 40.6952 33.3122 39.94 34.1073C38.7615 35.3685 37.1105 36 34.9888 36C33.2362 36 31.6902 35.4688 30.3541 34.403C29.0113 33.3388 28.3442 31.6049 28.3442 29.2059C28.3442 26.9557 28.9487 25.23 30.156 24.029C31.3667 22.8312 32.9331 22.2281 34.8618 22.2281C36.0082 22.2281 37.0393 22.4319 37.9572 22.8378ZM16.1472 32.5103V27.8278H20.5295C21.2915 27.8344 21.8858 27.9347 22.3091 28.1251C23.066 28.4676 23.442 29.094 23.442 30.0095C23.442 31.0886 23.0525 31.817 22.2719 32.2012C21.8435 32.4066 21.2406 32.5103 20.4685 32.5103H16.1472ZM16.1472 21.0487V24.9227H20.4753C21.2458 24.9227 21.874 24.7773 22.3583 24.4866C22.8391 24.1961 23.0813 23.6815 23.0813 22.9464C23.0813 22.1262 22.763 21.5866 22.1262 21.3227C21.5743 21.1406 20.8732 21.0487 20.0215 21.0487H16.1472Z" fill="white"/>
<defs>
<filter id="filter0_b" x="-20" y="-20" width="94" height="94" filterUnits="userSpaceOnUse" color-interpolation-filters="sRGB">
<feFlood flood-opacity="0" result="BackgroundImageFix"/>
<feGaussianBlur in="BackgroundImage" stdDeviation="10"/>
<feComposite in2="SourceAlpha" operator="in" result="effect1_backgroundBlur"/>
<feBlend mode="normal" in="SourceGraphic" in2="effect1_backgroundBlur" result="shape"/>
</filter>
</defs>
</svg>
