<svg width="18" height="18" viewBox="0 0 18 18" fill="none" xmlns="http://www.w3.org/2000/svg">
<path d="M8.70711 4.29289C8.31658 3.90237 7.68342 3.90237 7.29289 4.29289C6.90237 4.68342 6.90237 5.31658 7.29289 5.70711L8.70711 4.29289ZM7.29289 12.2929C6.90237 12.6834 6.90237 13.3166 7.29289 13.7071C7.68342 14.0976 8.31658 14.0976 8.70711 13.7071L7.29289 12.2929ZM12.3536 7.93934L8.70711 4.29289L7.29289 5.70711L10.9393 9.35355L12.3536 7.93934ZM10.9393 8.64645L7.29289 12.2929L8.70711 13.7071L12.3536 10.0607L10.9393 8.64645ZM10.9393 9.35355C10.7441 9.15829 10.7441 8.84171 10.9393 8.64645L12.3536 10.0607C12.9393 9.47487 12.9393 8.52513 12.3536 7.93934L10.9393 9.35355Z" fill="#0C0118" fill-opacity="0.2"/>
</svg>
