<svg width="51" height="10" viewBox="0 0 51 10" fill="none" xmlns="http://www.w3.org/2000/svg">
<path d="M7.63761 6.88421V9.25263H6.40603V8H2.0692V9.25263H0.848151V6.88421H1.11131C1.4692 6.87018 1.71131 6.64211 1.83762 6.2C1.97096 5.75088 2.05867 5.11931 2.10078 4.30527L2.17446 2.37896H6.80603V6.88421H7.63761ZM3.30078 4.40001C3.27271 5.04562 3.22007 5.57194 3.14288 5.97895C3.06569 6.38597 2.92534 6.68772 2.72183 6.88421H5.49024V3.49475H3.33236L3.30078 4.40001ZM8.81277 2.37896H10.1286V6.08422L13.2338 2.37896H14.4338V8H13.118V4.29475L10.0233 8H8.81277V2.37896ZM19.4897 5.07369C19.8406 5.17194 20.1108 5.33334 20.3002 5.5579C20.4967 5.77544 20.595 6.0386 20.595 6.34737C20.595 6.69123 20.4792 6.99649 20.2476 7.26316C20.016 7.52281 19.6967 7.72632 19.2897 7.87368C18.8827 8.02105 18.4195 8.09474 17.9002 8.09474C17.4652 8.09474 17.0406 8.04561 16.6266 7.94737C16.2125 7.84211 15.8371 7.69474 15.5003 7.50526L15.8792 6.52632C16.1529 6.6807 16.4617 6.8 16.8055 6.88421C17.1494 6.96842 17.4932 7.01053 17.8371 7.01053C18.2792 7.01053 18.6231 6.94386 18.8687 6.81053C19.1213 6.67018 19.2476 6.48071 19.2476 6.24211C19.2476 6.02457 19.1494 5.85615 18.9529 5.73685C18.7634 5.61755 18.4932 5.5579 18.1424 5.5579H17.0476V4.67369H18.0371C18.3669 4.67369 18.6231 4.61755 18.8055 4.50527C18.995 4.39299 19.0897 4.2351 19.0897 4.03159C19.0897 3.82808 18.9774 3.66668 18.7529 3.54738C18.5283 3.42808 18.2195 3.36843 17.8266 3.36843C17.2652 3.36843 16.6722 3.50527 16.0476 3.77896L15.7108 2.81054C16.4476 2.46668 17.1915 2.29475 17.9424 2.29475C18.4195 2.29475 18.8476 2.36142 19.2266 2.49475C19.6055 2.62107 19.9002 2.80352 20.1108 3.04212C20.3283 3.2737 20.4371 3.54036 20.4371 3.84212C20.4371 4.1158 20.3529 4.36141 20.1845 4.57896C20.016 4.78948 19.7845 4.95439 19.4897 5.07369ZM24.0551 2.3158C24.8831 2.3158 25.5147 2.5158 25.9498 2.9158C26.3919 3.30878 26.613 3.90527 26.613 4.70527V8H25.3709V7.31579C25.2095 7.5614 24.9779 7.75088 24.6761 7.88421C24.3814 8.01053 24.0235 8.07368 23.6025 8.07368C23.1814 8.07368 22.813 8.00351 22.4972 7.86316C22.1814 7.71579 21.9358 7.51579 21.7604 7.26316C21.5919 7.00351 21.5077 6.71228 21.5077 6.38948C21.5077 5.88422 21.6937 5.48071 22.0656 5.17895C22.4446 4.87018 23.0375 4.7158 23.8446 4.7158H25.2972V4.63159C25.2972 4.23861 25.1779 3.93685 24.9393 3.72633C24.7077 3.5158 24.3603 3.41054 23.8972 3.41054C23.5814 3.41054 23.2691 3.45966 22.9603 3.55791C22.6586 3.65615 22.4025 3.79299 22.1919 3.96843L21.6761 3.01054C21.9709 2.78598 22.3253 2.61405 22.7393 2.49475C23.1533 2.37545 23.5919 2.3158 24.0551 2.3158ZM23.8761 7.11579C24.206 7.11579 24.4972 7.04211 24.7498 6.89474C25.0095 6.74035 25.1919 6.52281 25.2972 6.24211V5.58948H23.9393C23.1814 5.58948 22.8025 5.8386 22.8025 6.33685C22.8025 6.57544 22.8972 6.76492 23.0867 6.90527C23.2761 7.04562 23.5393 7.11579 23.8761 7.11579ZM28.2412 2.37896H29.557V6.08422L32.6622 2.37896H33.8622V8H32.5464V4.29475L29.4517 8H28.2412V2.37896ZM30.9675 1.7158C30.3991 1.7158 29.964 1.58598 29.6622 1.32633C29.3675 1.05967 29.2166 0.673702 29.2096 0.16844H30.0833C30.0903 0.421071 30.1675 0.621071 30.3149 0.768438C30.4692 0.915807 30.6833 0.989491 30.957 0.989491C31.2236 0.989491 31.4342 0.915807 31.5885 0.768438C31.7499 0.621071 31.8342 0.421071 31.8412 0.16844H32.7359C32.7289 0.673702 32.5745 1.05967 32.2727 1.32633C31.971 1.58598 31.5359 1.7158 30.9675 1.7158ZM35.6322 2.37896H36.948V4.66317H39.7796V2.37896H41.0953V8H39.7796V5.77895H36.948V8H35.6322V2.37896ZM48.3257 8.07368C47.7433 8.07368 47.2205 7.95088 46.7573 7.70526C46.2942 7.45965 45.9328 7.1193 45.6731 6.68421C45.4135 6.24211 45.2837 5.74387 45.2837 5.18948C45.2837 4.6351 45.4135 4.14036 45.6731 3.70527C45.9328 3.27019 46.2907 2.92984 46.7468 2.68422C47.21 2.43861 47.7363 2.3158 48.3257 2.3158C48.8801 2.3158 49.3643 2.42808 49.7784 2.65264C50.1994 2.87721 50.5152 3.20001 50.7257 3.62106L49.7152 4.21054C49.5538 3.95089 49.3503 3.7579 49.1047 3.63159C48.8661 3.49826 48.6029 3.43159 48.3152 3.43159C47.824 3.43159 47.417 3.59299 47.0942 3.9158C46.7714 4.23159 46.61 4.65615 46.61 5.18948C46.61 5.72281 46.7679 6.15088 47.0836 6.47369C47.4065 6.78948 47.817 6.94737 48.3152 6.94737C48.6029 6.94737 48.8661 6.88421 49.1047 6.7579C49.3503 6.62456 49.5538 6.42807 49.7152 6.16843L50.7257 6.7579C50.5082 7.17895 50.1889 7.50526 49.7679 7.73684C49.3538 7.9614 48.8731 8.07368 48.3257 8.07368Z" fill="black" fill-opacity="0.6"/>
</svg>
