<svg width="920" height="3363" viewBox="0 0 920 3363" fill="none" xmlns="http://www.w3.org/2000/svg">
<path d="M723.818 2915.84L317.242 3090.19L317.242 3188.41L723.818 3362.77L723.818 3263.79L422.312 3137.4L723.818 3007.2L723.818 2915.84Z" fill="#F2F2F2"/>
<path d="M742.33 2673.46C742.33 2714.57 733.447 2751.63 715.681 2784.62C697.916 2817.61 673.298 2843.5 641.828 2862.28C609.85 2880.55 573.811 2889.69 533.712 2889.69C493.612 2889.69 457.828 2880.55 426.357 2862.28C394.887 2843.5 370.269 2817.61 352.503 2784.62C334.738 2751.63 325.855 2714.57 325.855 2673.46C325.855 2631.83 334.738 2594.53 352.503 2561.53C370.269 2528.54 394.887 2502.91 426.357 2484.63C457.828 2465.85 493.612 2456.46 533.712 2456.46C573.811 2456.46 609.85 2465.85 641.828 2484.63C673.298 2502.91 697.916 2528.54 715.681 2561.53C733.447 2594.53 742.33 2631.83 742.33 2673.46ZM660.862 2673.46C660.862 2638.43 649.188 2609.5 625.839 2586.66C602.49 2563.82 571.781 2552.4 533.712 2552.4C495.643 2552.4 464.934 2563.82 441.585 2586.66C418.236 2609.5 406.561 2638.43 406.561 2673.46C406.561 2708.48 418.236 2737.41 441.585 2760.25C464.934 2782.59 495.643 2793.75 533.712 2793.75C571.781 2793.75 602.49 2782.59 625.839 2760.25C649.188 2737.41 660.862 2708.48 660.862 2673.46ZM330.423 1995.92L737 2170.27L737 2268.49L330.423 2442.85L330.423 2343.87L631.93 2217.48L330.423 2087.28L330.423 1995.92ZM535.996 1565.38C542.594 1565.38 551.985 1565.88 564.167 1566.9L564.167 1885.92C594.114 1880.33 617.971 1865.87 635.737 1842.52C652.994 1818.66 661.623 1789.22 661.623 1754.2C661.623 1709.53 646.903 1672.73 617.463 1643.8L676.09 1592.79C697.916 1611.06 714.412 1634.15 725.579 1662.07C736.746 1689.99 742.33 1721.46 742.33 1756.48C742.33 1801.15 733.447 1840.49 715.681 1874.5C697.916 1908.5 673.298 1934.9 641.828 1953.68C609.85 1971.95 573.811 1981.09 533.712 1981.09C494.12 1981.09 458.589 1972.21 427.119 1954.44C395.141 1936.17 370.269 1911.04 352.503 1879.06C334.738 1847.09 325.855 1811.05 325.855 1770.95C325.855 1731.36 334.738 1696.08 352.503 1665.12C369.761 1633.65 394.379 1609.28 426.357 1592.02C457.828 1574.26 494.374 1565.38 535.996 1565.38ZM401.993 1770.95C401.993 1801.4 411.13 1827.29 429.403 1848.61C447.168 1869.42 471.025 1882.11 500.972 1886.68L500.972 1655.98C471.532 1660.04 447.676 1672.48 429.403 1693.29C411.13 1714.1 401.993 1739.99 401.993 1770.95ZM172.056 1473.96L172.056 1378.78L737 1378.78L737 1473.96L172.056 1473.96ZM172.056 1253.87L172.056 1158.7L737 1158.7L737 1253.87L172.056 1253.87ZM172.056 1033.78L172.056 938.612L737 938.612L737 1033.78L172.056 1033.78ZM325.855 658.377C325.855 598.482 340.321 552.799 369.254 521.329C397.678 489.351 440.823 473.362 498.688 473.362L737 473.362L737 563.205L687.51 563.205C705.276 574.879 718.981 591.63 728.625 613.456C737.761 634.775 742.33 660.661 742.33 691.117C742.33 721.572 737.254 748.22 727.102 771.061C716.443 793.903 701.976 811.668 683.703 824.358C664.923 836.54 643.858 842.631 620.509 842.631C583.963 842.631 554.776 829.18 532.95 802.278C510.616 774.868 499.45 731.977 499.45 673.605L499.45 568.535L493.358 568.535C464.934 568.535 443.107 577.164 427.88 594.421C412.652 611.172 405.038 636.297 405.038 669.798C405.038 692.639 408.592 715.227 415.698 737.561C422.804 759.387 432.702 777.914 445.392 793.141L376.106 830.449C359.863 809.13 347.427 783.497 338.799 753.55C330.17 723.602 325.855 691.878 325.855 658.377ZM673.044 671.321C673.044 647.464 667.714 626.399 657.055 608.126C645.888 589.346 630.153 576.148 609.85 568.535L562.644 568.535L562.644 666.752C562.644 721.572 580.663 748.981 616.702 748.981C633.96 748.981 647.665 742.129 657.816 728.424C667.968 714.719 673.044 695.685 673.044 671.321ZM742.33 225.593C742.33 258.586 738.015 290.817 729.386 322.288C720.757 353.758 709.844 378.884 696.647 397.664L624.316 361.118C636.498 342.845 646.396 321.019 654.01 295.639C661.116 269.753 664.669 244.373 664.669 219.502C664.669 162.652 649.695 134.227 619.747 134.227C605.535 134.227 595.637 141.587 590.054 156.307C584.47 170.519 579.141 193.615 574.065 225.593C568.989 259.093 563.152 286.503 556.553 307.822C549.954 328.633 538.534 346.906 522.291 362.641C505.541 377.868 482.445 385.482 453.005 385.482C414.429 385.482 383.72 369.493 360.878 337.515C337.53 305.03 325.855 261.377 325.855 206.558C325.855 178.641 329.154 150.724 335.753 122.806C341.844 94.8891 350.219 72.0478 360.878 54.2822L433.21 90.8284C412.906 125.344 402.754 164.175 402.754 207.319C402.754 235.237 407.069 256.555 415.698 271.275C423.819 285.488 434.732 292.594 448.437 292.594C463.665 292.594 474.578 284.98 481.176 269.753C487.267 254.017 493.105 229.907 498.688 197.422C503.764 164.936 509.601 138.288 516.2 117.477C522.798 96.6657 533.965 78.9002 549.701 64.1802C565.436 48.9526 587.77 41.3388 616.702 41.3388C654.771 41.3388 685.226 57.8353 708.067 90.8284C730.909 123.822 742.33 168.743 742.33 225.593Z" fill="#F2F2F2"/>
</svg>
