<svg width="24" height="24" viewBox="0 0 24 24" fill="none" xmlns="http://www.w3.org/2000/svg">
<g clip-path="url(#clip0)">
<ellipse cx="4.92857" cy="20.1663" rx="4.92857" ry="3.83333" fill="#FC7449"/>
<path d="M8.76172 5.45548C8.76172 4.51379 9.41863 3.69966 10.3391 3.50065L19.4819 1.52382C20.7279 1.25441 21.9046 2.20385 21.9046 3.47865V4.83333L8.76172 7.77864V5.45548Z" fill="#FC7449"/>
<path d="M8.76172 20.7143V7.77864M21.9046 16.7774V4.83333M8.76172 7.77864V5.45548C8.76172 4.51379 9.41863 3.69966 10.3391 3.50065L19.4819 1.52382C20.7279 1.25441 21.9046 2.20385 21.9046 3.47865V4.83333M8.76172 7.77864L21.9046 4.83333" stroke="#FC7449" stroke-width="2"/>
<ellipse cx="18.0731" cy="16.8812" rx="4.92857" ry="3.83333" fill="#FC7449"/>
</g>
<defs>
<clipPath id="clip0">
<rect width="24" height="24" fill="white"/>
</clipPath>
</defs>
</svg>
