<svg width="920" height="3363" viewBox="0 0 920 3363" fill="none" xmlns="http://www.w3.org/2000/svg">
<path d="M723.819 2915.84L317.242 3090.19L317.242 3188.41L723.819 3362.77L723.819 3263.79L422.312 3137.4L723.819 3007.2L723.819 2915.84Z" fill="black" fill-opacity="0.05"/>
<path d="M742.33 2673.46C742.33 2714.57 733.447 2751.63 715.681 2784.62C697.916 2817.61 673.298 2843.5 641.828 2862.28C609.85 2880.55 573.811 2889.69 533.712 2889.69C493.612 2889.69 457.828 2880.55 426.357 2862.28C394.887 2843.5 370.269 2817.61 352.503 2784.62C334.738 2751.63 325.855 2714.57 325.855 2673.46C325.855 2631.84 334.738 2594.53 352.503 2561.53C370.269 2528.54 394.887 2502.91 426.357 2484.64C457.828 2465.85 493.612 2456.46 533.712 2456.46C573.811 2456.46 609.85 2465.85 641.828 2484.64C673.298 2502.91 697.916 2528.54 715.681 2561.53C733.447 2594.53 742.33 2631.84 742.33 2673.46ZM660.862 2673.46C660.862 2638.43 649.188 2609.5 625.839 2586.66C602.49 2563.82 571.781 2552.4 533.712 2552.4C495.643 2552.4 464.934 2563.82 441.585 2586.66C418.236 2609.5 406.561 2638.43 406.561 2673.46C406.561 2708.48 418.236 2737.41 441.585 2760.25C464.934 2782.59 495.643 2793.76 533.712 2793.76C571.781 2793.76 602.49 2782.59 625.839 2760.25C649.188 2737.41 660.862 2708.48 660.862 2673.46ZM330.423 1995.92L737 2170.27L737 2268.49L330.423 2442.85L330.423 2343.87L631.93 2217.48L330.423 2087.28L330.423 1995.92ZM535.996 1565.38C542.594 1565.38 551.985 1565.88 564.167 1566.9L564.167 1885.92C594.114 1880.33 617.971 1865.87 635.737 1842.52C652.994 1818.66 661.623 1789.22 661.623 1754.2C661.623 1709.53 646.903 1672.73 617.463 1643.8L676.09 1592.79C697.916 1611.06 714.412 1634.15 725.579 1662.07C736.746 1689.99 742.33 1721.46 742.33 1756.48C742.33 1801.15 733.447 1840.49 715.681 1874.5C697.916 1908.51 673.298 1934.9 641.828 1953.68C609.85 1971.95 573.811 1981.09 533.712 1981.09C494.12 1981.09 458.589 1972.21 427.119 1954.44C395.141 1936.17 370.269 1911.04 352.503 1879.07C334.738 1847.09 325.855 1811.05 325.855 1770.95C325.855 1731.36 334.738 1696.08 352.503 1665.12C369.761 1633.65 394.379 1609.28 426.357 1592.03C457.828 1574.26 494.374 1565.38 535.996 1565.38ZM401.993 1770.95C401.993 1801.4 411.13 1827.29 429.403 1848.61C447.168 1869.42 471.025 1882.11 500.972 1886.68L500.972 1655.98C471.532 1660.04 447.676 1672.48 429.403 1693.29C411.13 1714.1 401.993 1739.99 401.993 1770.95ZM172.056 1473.96L172.056 1378.79L737 1378.79L737 1473.96L172.056 1473.96ZM172.056 1253.87L172.056 1158.7L737 1158.7L737 1253.87L172.056 1253.87ZM172.056 1033.79L172.056 938.613L737 938.613L737 1033.79L172.056 1033.79ZM325.855 658.378C325.855 598.483 340.321 552.8 369.254 521.33C397.678 489.352 440.823 473.363 498.688 473.363L737 473.363L737 563.205L687.51 563.205C705.276 574.88 718.981 591.63 728.625 613.456C737.761 634.775 742.33 660.662 742.33 691.117C742.33 721.572 737.254 748.221 727.102 771.062C716.443 793.903 701.976 811.669 683.703 824.358C664.923 836.541 643.858 842.632 620.509 842.632C583.963 842.632 554.776 829.181 532.95 802.279C510.616 774.869 499.45 731.978 499.45 673.605L499.45 568.535L493.358 568.535C464.934 568.535 443.107 577.164 427.88 594.422C412.652 611.172 405.038 636.298 405.038 669.798C405.038 692.64 408.592 715.227 415.698 737.561C422.804 759.387 432.702 777.914 445.392 793.142L376.106 830.45C359.863 809.131 347.427 783.498 338.799 753.55C330.17 723.603 325.855 691.879 325.855 658.378ZM673.044 671.321C673.044 647.465 667.714 626.4 657.055 608.127C645.888 589.346 630.153 576.149 609.85 568.535L562.644 568.535L562.644 666.753C562.644 721.572 580.663 748.982 616.702 748.982C633.96 748.982 647.665 742.13 657.816 728.425C667.968 714.72 673.044 695.685 673.044 671.321ZM742.33 225.593C742.33 258.586 738.015 290.818 729.386 322.288C720.757 353.759 709.844 378.884 696.647 397.665L624.316 361.119C636.498 342.845 646.396 321.019 654.01 295.64C661.116 269.753 664.669 244.374 664.669 219.502C664.669 162.652 649.695 134.228 619.747 134.228C605.535 134.228 595.637 141.588 590.054 156.308C584.47 170.52 579.141 193.615 574.065 225.593C568.989 259.094 563.152 286.503 556.553 307.822C549.954 328.633 538.534 346.906 522.291 362.641C505.541 377.869 482.445 385.483 453.005 385.483C414.429 385.483 383.72 369.494 360.878 337.516C337.53 305.03 325.855 261.378 325.855 206.559C325.855 178.641 329.154 150.724 335.753 122.807C341.844 94.8896 350.219 72.0483 360.878 54.2827L433.21 90.8289C412.906 125.345 402.754 164.175 402.754 207.32C402.754 235.237 407.069 256.556 415.698 271.276C423.819 285.488 434.732 292.594 448.437 292.594C463.665 292.594 474.578 284.981 481.176 269.753C487.267 254.018 493.105 229.908 498.688 197.422C503.764 164.937 509.601 138.288 516.2 117.477C522.798 96.6662 533.965 78.9007 549.701 64.1807C565.436 48.9531 587.77 41.3393 616.702 41.3393C654.771 41.3393 685.226 57.8358 708.067 90.8289C730.909 123.822 742.33 168.743 742.33 225.593Z" fill="black" fill-opacity="0.05"/>
</svg>
